<svg width="16" height="21" viewBox="0 0 16 21" fill="none" xmlns="http://www.w3.org/2000/svg">
<path d="M0 10.4776C0 10.7547 0.105357 11.0204 0.292893 11.2164C0.48043 11.4123 0.734784 11.5224 1 11.5224H8.59L6.29 13.9149C6.19627 14.012 6.12188 14.1276 6.07111 14.2549C6.02034 14.3822 5.9942 14.5188 5.9942 14.6567C5.9942 14.7946 6.02034 14.9312 6.07111 15.0585C6.12188 15.1858 6.19627 15.3014 6.29 15.3985C6.38296 15.4964 6.49356 15.5742 6.61542 15.6272C6.73728 15.6802 6.86799 15.7075 7 15.7075C7.13201 15.7075 7.26272 15.6802 7.38458 15.6272C7.50644 15.5742 7.61704 15.4964 7.71 15.3985L11.71 11.2194C11.801 11.12 11.8724 11.0029 11.92 10.8746C12.02 10.6203 12.02 10.335 11.92 10.0806C11.8724 9.95235 11.801 9.83518 11.71 9.73582L7.71 5.55671C7.61676 5.4593 7.50607 5.38203 7.38425 5.32931C7.26243 5.27659 7.13186 5.24945 7 5.24945C6.86814 5.24945 6.73757 5.27659 6.61575 5.32931C6.49393 5.38203 6.38324 5.4593 6.29 5.55671C6.19676 5.65413 6.1228 5.76977 6.07234 5.89705C6.02188 6.02433 5.99591 6.16074 5.99591 6.2985C5.99591 6.43627 6.02188 6.57268 6.07234 6.69996C6.1228 6.82724 6.19676 6.94288 6.29 7.04029L8.59 9.43283H1C0.734784 9.43283 0.48043 9.54291 0.292893 9.73884C0.105357 9.93477 0 10.2005 0 10.4776V10.4776ZM13 0.0298462H3C2.20435 0.0298462 1.44129 0.360069 0.87868 0.94787C0.316071 1.53567 0 2.3329 0 3.16417V6.2985C0 6.5756 0.105357 6.84134 0.292893 7.03727C0.48043 7.23321 0.734784 7.34328 1 7.34328C1.26522 7.34328 1.51957 7.23321 1.70711 7.03727C1.89464 6.84134 2 6.5756 2 6.2985V3.16417C2 2.88708 2.10536 2.62134 2.29289 2.42541C2.48043 2.22947 2.73478 2.1194 3 2.1194H13C13.2652 2.1194 13.5196 2.22947 13.7071 2.42541C13.8946 2.62134 14 2.88708 14 3.16417V17.791C14 18.0681 13.8946 18.3339 13.7071 18.5298C13.5196 18.7257 13.2652 18.8358 13 18.8358H3C2.73478 18.8358 2.48043 18.7257 2.29289 18.5298C2.10536 18.3339 2 18.0681 2 17.791V14.6567C2 14.3796 1.89464 14.1139 1.70711 13.9179C1.51957 13.722 1.26522 13.6119 1 13.6119C0.734784 13.6119 0.48043 13.722 0.292893 13.9179C0.105357 14.1139 0 14.3796 0 14.6567V17.791C0 18.6223 0.316071 19.4195 0.87868 20.0073C1.44129 20.5951 2.20435 20.9254 3 20.9254H13C13.7956 20.9254 14.5587 20.5951 15.1213 20.0073C15.6839 19.4195 16 18.6223 16 17.791V3.16417C16 2.3329 15.6839 1.53567 15.1213 0.94787C14.5587 0.360069 13.7956 0.0298462 13 0.0298462Z" fill="black"/>
</svg>
