<svg width="25" height="15" viewBox="0 0 25 15" fill="none" xmlns="http://www.w3.org/2000/svg">
<path d="M9.94417 14.9788L7.78903 14.3694L8.66738 10.9118C7.35261 10.4006 6.13068 9.65572 5.05465 8.70941L2.65175 11.2435L1.07251 9.57882L3.47653 7.04588C2.11947 5.33266 1.20765 3.27737 0.830322 1.08117L3.02675 0.658821C3.87385 5.60235 7.97653 9.35294 12.9107 9.35294C17.8437 9.35294 21.9475 5.60235 22.7946 0.658821L24.991 1.08C24.6142 3.27649 23.7028 5.3322 22.346 7.04588L24.7489 9.57882L23.1696 11.2435L20.7667 8.70941C19.6907 9.65572 18.4688 10.4006 17.154 10.9118L18.0323 14.3706L15.8772 14.9788L14.9977 11.52C13.6164 11.7695 12.2049 11.7695 10.8236 11.52L9.94417 14.9788Z" fill="#09121F"/>
</svg>
